Coordinates
version=1
nRows=14
nColumns=63
inDegrees=yes

Units are S.I. units (second, meters, Newtons, ...)
If the header above contains a line with 'inDegrees', this indicates whether rotational values are in degrees (yes) or radians (no).

endheader
time	pelvis_tilt	pelvis_list	pelvis_rotation	pelvis_tx	pelvis_ty	pelvis_tz	hip_flexion_r	hip_adduction_r	hip_rotation_r	knee_angle_r	knee_angle_r_beta	ankle_angle_r	subtalar_angle_r	mtp_angle_r	hip_flexion_l	hip_adduction_l	hip_rotation_l	knee_angle_l	knee_angle_l_beta	ankle_angle_l	subtalar_angle_l	mtp_angle_l	L5_S1_Flex_Ext	L5_S1_Lat_Bending	L5_S1_axial_rotation	L4_L5_Flex_Ext	L4_L5_Lat_Bending	L4_L5_axial_rotation	L3_L4_Flex_Ext	L3_L4_Lat_Bending	L3_L4_axial_rotation	L2_L3_Flex_Ext	L2_L3_Lat_Bending	L2_L3_axial_rotation	L1_L2_Flex_Ext	L1_L2_Lat_Bending	L1_L2_axial_rotation	L1_T12_Flex_Ext	L1_T12_Lat_Bending	L1_T12_axial_rotation	Abs_r3	Abs_r2	Abs_r1	Abs_t1	Abs_t2	neck_flexion	neck_bending	neck_rotation	arm_flex_r	arm_add_r	arm_rot_r	elbow_flex_r	pro_sup_r	wrist_flex_r	wrist_dev_r	arm_flex_l	arm_add_l	arm_rot_l	elbow_flex_l	pro_sup_l	wrist_flex_l	wrist_dev_l
2.872727	0.183296	5.364908	100.748844	0.037821	0.888331	0.563799	-5.122667	3.219207	-8.328181	7.982199	0.139316	27.712782	-4.419850	0.000000	-8.578278	-1.597964	4.630501	0.500151	0.008729	30.150159	-2.872799	0.000000	0.100158	0.392514	-0.333334	0.186003	0.522044	-0.354167	0.164549	0.954360	-0.354167	0.114470	0.954360	-0.291667	0.093006	0.800415	-0.270834	0.057230	0.608005	-0.250000	0.715416	4.440201	-1.853903	0.000000	0.000000	19.421108	6.637461	38.910486	13.040818	-14.561202	147.475230	11.383521	5.964079	-0.330944	-11.311552	4.899417	-9.904667	164.207109	1.393221	3.838509	-16.327286	-11.221829
2.890909	0.189562	5.408038	100.770397	0.037733	0.888544	0.564010	-5.129443	3.255559	-7.931057	7.993861	0.139519	27.447447	-5.148585	0.000000	-8.581959	-1.608237	4.373093	0.498948	0.008708	30.269833	-2.513726	0.000000	0.092780	0.396766	-0.380133	0.172301	0.527698	-0.403892	0.152428	0.964696	-0.403892	0.106038	0.964696	-0.332617	0.086155	0.809085	-0.308858	0.053014	0.614590	-0.285100	0.662716	4.488293	-2.114187	0.000000	0.000000	19.209597	6.660917	39.210244	13.146604	-14.471985	148.461400	11.164988	5.918323	-0.489272	-11.314025	4.863615	-9.887988	164.511390	1.334732	3.878459	-16.828224	-11.186671
2.909091	0.194083	5.459755	100.817035	0.037606	0.888763	0.564178	-5.162028	3.293529	-7.565317	7.969535	0.139095	27.230834	-5.789682	0.000000	-8.599594	-1.622930	4.118790	0.500043	0.008727	30.397808	-2.113286	0.000000	0.085313	0.400030	-0.427678	0.158435	0.532040	-0.454407	0.140161	0.972633	-0.454407	0.097505	0.972633	-0.374218	0.079222	0.815741	-0.347488	0.048748	0.619647	-0.320758	0.609385	4.525221	-2.378614	0.000000	0.000000	19.096858	6.500071	39.170093	13.208626	-14.353772	149.797640	10.825599	5.774865	-0.657799	-11.343761	4.824326	-9.881988	164.846444	1.280952	3.916621	-17.295370	-11.167696
2.927273	0.191286	5.517948	100.893173	0.037449	0.888978	0.564256	-5.218672	3.327084	-7.257163	7.920318	0.138236	27.082612	-6.323906	0.000000	-8.634553	-1.637252	3.893495	0.500490	0.008735	30.520416	-1.713826	0.000000	0.077871	0.401681	-0.475109	0.144614	0.534236	-0.504804	0.127934	0.976647	-0.504804	0.088999	0.976647	-0.415721	0.072311	0.819108	-0.386026	0.044495	0.622204	-0.356332	0.556225	4.543897	-2.642416	0.000000	0.000000	19.045189	6.255935	38.919804	13.218829	-14.210837	151.407446	10.367827	5.528673	-0.772923	-11.394921	4.777770	-9.889894	165.244838	1.228029	3.916542	-17.670567	-11.143538
2.945455	0.189670	5.576576	101.010256	0.037250	0.889171	0.564220	-5.292344	3.365805	-6.991392	7.852796	0.137057	27.000652	-6.781623	0.000000	-8.678890	-1.662358	3.763368	0.501039	0.008745	30.631653	-1.371176	0.000000	0.072189	0.401876	-0.521618	0.134062	0.534494	-0.554219	0.118599	0.977120	-0.554219	0.082504	0.977120	-0.456416	0.067034	0.819505	-0.423815	0.041249	0.622505	-0.391214	0.515636	4.546096	-2.901083	0.000000	0.000000	19.085063	5.868835	38.367145	13.171163	-14.042767	153.316473	9.792522	5.174782	-0.801348	-11.452387	4.717015	-9.914548	165.578554	1.171213	3.868166	-17.855116	-11.139257
2.963636	0.174411	5.634003	101.163620	0.037029	0.889344	0.564067	-5.392758	3.391438	-6.834668	7.754368	0.135339	26.996388	-7.050729	0.000000	-8.734604	-1.681700	3.686608	0.501764	0.008757	30.729719	-1.046587	0.000000	0.066858	0.399727	-0.563286	0.124161	0.531637	-0.598491	0.109840	0.971896	-0.598491	0.076412	0.971896	-0.492875	0.062084	0.815123	-0.457670	0.038202	0.619177	-0.422464	0.477557	4.521791	-3.132827	0.000000	0.000000	19.142787	5.530517	37.831960	13.066351	-13.865025	155.276962	9.137188	4.759097	-0.732924	-11.513880	4.658409	-9.955090	165.843437	1.126440	3.808380	-17.904845	-11.152244
2.981818	0.149588	5.693608	101.366024	0.036744	0.889499	0.563767	-5.525280	3.408032	-6.816917	7.633521	0.133230	27.065469	-7.120821	0.000000	-8.805751	-1.702933	3.706321	0.501517	0.008753	30.809293	-0.763593	0.000000	0.064333	0.395217	-0.601534	0.119472	0.525638	-0.639130	0.105692	0.960930	-0.639130	0.073526	0.960930	-0.526342	0.059739	0.805926	-0.488746	0.036760	0.612191	-0.451150	0.459521	4.470771	-3.345550	0.000000	0.000000	19.233104	5.158214	37.171880	12.901767	-13.675013	157.349841	8.430512	4.268639	-0.618721	-11.588662	4.590827	-10.009713	165.937564	1.096278	3.714954	-17.765804	-11.185616
3.000000	0.117078	5.746426	101.601441	0.036445	0.889617	0.563386	-5.665044	3.415389	-6.893343	7.512966	0.131126	27.196481	-7.038366	0.000000	-8.878192	-1.722204	3.810456	0.501566	0.008754	30.865451	-0.556015	0.000000	0.062108	0.389491	-0.634842	0.115340	0.518023	-0.674519	0.102037	0.947009	-0.674519	0.070983	0.947009	-0.555486	0.057673	0.794250	-0.515809	0.035488	0.603322	-0.476131	0.443629	4.406003	-3.530799	0.000000	0.000000	19.254944	4.983172	36.825000	12.701568	-13.490262	159.376134	7.704542	3.746535	-0.463823	-11.641515	4.534906	-10.069587	165.966125	1.071105	3.591735	-17.513148	-11.216574
3.018182	0.073083	5.798956	101.865437	0.036106	0.889712	0.562879	-5.832655	3.409079	-7.050577	7.372206	0.128669	27.378508	-6.801987	0.000000	-8.969026	-1.736544	4.005049	0.490604	0.008563	30.893343	-0.417775	0.000000	0.062642	0.382063	-0.659559	0.116332	0.508144	-0.700781	0.102914	0.928949	-0.700781	0.071593	0.928949	-0.577114	0.058169	0.779103	-0.535892	0.035793	0.591816	-0.494669	0.447442	4.321976	-3.668268	0.000000	0.000000	19.258232	4.854899	36.542786	12.437197	-13.302800	161.543347	6.922381	3.078244	-0.201253	-11.703566	4.477887	-10.130487	165.997097	1.031195	3.370438	-17.107530	-11.237385
3.036364	0.019522	5.843187	102.137207	0.035775	0.889780	0.562335	-5.996480	3.394973	-7.162657	7.244233	0.126436	27.566036	-6.610580	0.000000	-9.047479	-1.742152	4.256588	0.508730	0.008879	30.908933	-0.340700	0.000000	0.066050	0.373468	-0.675424	0.122661	0.496712	-0.717638	0.108513	0.908050	-0.717638	0.075488	0.908050	-0.590996	0.061334	0.761576	-0.548782	0.037741	0.578502	-0.506568	0.471785	4.224744	-3.756504	0.000000	0.000000	19.140096	4.873359	36.490826	12.178713	-13.174244	163.068334	6.325837	2.724509	-0.011443	-11.705680	4.460447	-10.193304	165.642917	1.092013	3.314438	-16.636557	-11.283040
3.054545	-0.043005	5.898497	102.396628	0.035439	0.889843	0.561764	-6.188987	3.355152	-7.528803	7.107601	0.124051	27.830834	-6.012444	0.000000	-9.151108	-1.741214	4.264117	0.517953	0.009040	30.976646	0.074954	0.000000	0.068472	0.364874	-0.683209	0.127159	0.485282	-0.725910	0.112492	0.887154	-0.725910	0.078256	0.887154	-0.597808	0.063583	0.744050	-0.555108	0.039125	0.565189	-0.512407	0.489087	4.127523	-3.799806	0.000000	0.000000	18.987083	4.972776	36.577134	11.940573	-13.133251	163.842557	5.954336	2.760685	0.084738	-11.724537	4.442212	-10.246316	164.912824	1.173072	3.460390	-16.148247	-11.365118
3.072727	-0.112744	5.937230	102.669057	0.035135	0.889875	0.561188	-6.370314	3.320933	-7.735180	6.971359	0.121673	28.024674	-5.673919	0.000000	-9.239202	-1.733885	4.475516	0.525412	0.009170	30.985077	0.231387	0.000000	0.074149	0.355281	-0.690355	0.137702	0.472523	-0.733502	0.121819	0.863829	-0.733502	0.084745	0.863829	-0.604060	0.068855	0.724488	-0.560913	0.042369	0.550330	-0.517766	0.529637	4.019005	-3.839545	0.000000	0.000000	18.758482	5.170362	36.850638	11.703473	-13.083111	164.485336	5.665130	2.637328	0.159377	-11.752553	4.424552	-10.304169	164.285418	1.250820	3.362925	-15.544752	-11.438058
3.090909	-0.191092	5.969059	102.906788	0.034896	0.889890	0.560628	-6.543685	3.271376	-7.944559	6.847817	0.119517	28.203847	-5.318343	0.000000	-9.324929	-1.710804	4.727747	0.531244	0.009272	30.968642	0.276094	0.000000	0.081189	0.344905	-0.692301	0.150776	0.458724	-0.735570	0.133385	0.838603	-0.735570	0.092791	0.838603	-0.605763	0.075392	0.703331	-0.562494	0.046391	0.534258	-0.519226	0.579923	3.901638	-3.850370	0.000000	0.000000	18.540407	5.361510	37.121687	11.509115	-13.067848	164.638815	5.577117	2.603010	0.187507	-11.790745	4.406429	-10.364340	163.549481	1.337628	3.236969	-14.873776	-11.531358
3.109091	-0.271993	5.992990	103.155302	0.034648	0.889896	0.560136	-6.707082	3.216882	-8.228975	6.733936	0.117529	28.353916	-4.949543	0.000000	-9.394988	-1.684318	5.018016	0.535832	0.009352	30.937319	0.282613	0.000000	0.088788	0.335311	-0.705527	0.164889	0.445964	-0.749622	0.145870	0.815275	-0.749622	0.101476	0.815275	-0.617336	0.082449	0.683766	-0.573241	0.050734	0.519397	-0.529145	0.634207	3.793106	-3.923929	0.000000	0.000000	18.297992	5.572328	37.498473	11.385673	-13.075200	164.417667	5.671527	2.690253	0.124569	-11.845435	4.369286	-10.421541	162.631592	1.426189	3.096683	-14.188952	-11.656303
